External Loads File
version=1
nRows=61
nColumns=13
Range=5.000000e-03-10 seconds
endheader
time 	forceRightX 	forceRightY 	forceRightZ 	pointRightX 	pointRightY 	pointRightZ 	forceLeftX 	forceLeftY 	forceLeftZ 	pointLeftX 	pointLeftY 	pointLeftZ 		
0.005000 -37.242877 -82.895256 -0.000000 0.129840 0.336084 -0.124876 -106.661892 210.207260 -0.000000 0.457870 0.312169 -0.367280
0.010000 -37.333429 -82.747306 -0.000000 0.129846 0.336104 -0.124862 -105.671108 210.203910 -0.000000 0.457851 0.312171 -0.367298
0.015000 -37.427750 -82.645066 -0.000000 0.129831 0.336129 -0.124862 -104.781050 210.215968 -0.000000 0.457850 0.312142 -0.367302
0.020000 -37.508957 -82.623076 -0.000000 0.129830 0.336131 -0.124862 -104.090954 210.225533 -0.000000 0.457835 0.312125 -0.367310
0.025000 -37.575708 -82.688304 -0.000000 0.129880 0.336421 -0.124687 -103.647362 210.214797 -0.000000 0.457627 0.312480 -0.367509
0.030000 -37.681846 -82.802629 -0.000000 0.129764 0.336495 -0.124754 -103.338202 210.231956 -0.000000 0.457676 0.312460 -0.367461
0.035000 -37.777043 -82.962322 -0.000000 0.129746 0.336519 -0.124770 -103.279696 210.209631 -0.000000 0.457689 0.312475 -0.367487
0.040000 -37.893001 -83.122561 -0.000000 0.129737 0.336554 -0.124788 -103.340225 210.201008 -0.000000 0.457703 0.312434 -0.367485
0.045000 -38.001788 -83.269599 -0.000000 0.129719 0.336590 -0.124788 -103.523937 210.195092 -0.000000 0.457720 0.312409 -0.367492
0.050000 -38.094081 -83.391511 -0.000000 0.129701 0.336622 -0.124787 -103.792470 210.201683 -0.000000 0.457719 0.312404 -0.367501
0.055000 -38.165320 -83.488234 -0.000000 0.129690 0.336632 -0.124790 -104.097949 210.220614 -0.000000 0.457723 0.312391 -0.367483
0.060000 -38.214840 -83.568323 -0.000000 0.129687 0.336654 -0.124785 -104.389711 210.237691 -0.000000 0.457729 0.312381 -0.367492
0.065000 -38.237917 -83.643408 -0.000000 0.129685 0.336673 -0.124799 -104.653520 210.225733 -0.000000 0.457733 0.312370 -0.367491
0.070000 -38.230597 -83.720055 -0.000000 0.129699 0.336672 -0.124803 -104.895526 210.164512 -0.000000 0.457740 0.312361 -0.367491
0.075000 -38.200505 -83.795497 -0.000000 0.129698 0.336675 -0.124800 -105.092741 210.060183 -0.000000 0.457724 0.312363 -0.367501
0.080000 -38.153193 -83.867083 -0.000000 0.129698 0.336671 -0.124801 -105.230020 209.928307 -0.000000 0.457721 0.312362 -0.367495
0.085000 -38.100816 -83.930843 -0.000000 0.129702 0.336676 -0.124791 -105.292684 209.804237 -0.000000 0.457704 0.312353 -0.367501
0.090000 -38.036282 -83.993624 -0.000000 0.129689 0.336688 -0.124791 -105.323390 209.702994 -0.000000 0.457700 0.312376 -0.367497
0.095000 -37.974247 -84.051553 -0.000000 0.129698 0.336681 -0.124797 -105.310706 209.659517 -0.000000 0.457691 0.312355 -0.367500
0.100000 -37.903496 -84.108836 -0.000000 0.129717 0.336683 -0.124796 -105.306225 209.666879 -0.000000 0.457716 0.312358 -0.367673
0.105000 -37.832530 -84.159207 -0.000000 0.129715 0.336697 -0.124803 -105.296421 209.734881 -0.000000 0.457708 0.312352 -0.367682
0.110000 -37.755887 -84.206778 -0.000000 0.129710 0.336703 -0.124812 -105.291048 209.845442 -0.000000 0.457691 0.312344 -0.367684
0.115000 -37.679314 -84.256157 -0.000000 0.129706 0.336715 -0.124805 -105.293222 209.983444 -0.000000 0.457671 0.312351 -0.367701
0.120000 -37.621859 -84.305225 -0.000000 0.129703 0.336729 -0.124812 -105.291010 210.144384 -0.000000 0.457655 0.312334 -0.367704
0.125000 -37.583187 -84.354425 -0.000000 0.129691 0.336734 -0.124811 -105.299625 210.301834 -0.000000 0.457676 0.312313 -0.367707
0.130000 -37.569648 -84.396257 -0.000000 0.129691 0.336752 -0.124796 -105.293513 210.449736 -0.000000 0.457681 0.312300 -0.367707
0.135000 -37.586388 -84.421844 -0.000000 0.129681 0.336778 -0.124793 -105.252266 210.599988 -0.000000 0.457699 0.312264 -0.367716
0.140000 -37.611950 -84.435646 -0.000000 0.129672 0.336790 -0.124794 -105.227626 210.745439 -0.000000 0.457704 0.312256 -0.367703
0.145000 -37.677055 -84.424426 -0.000000 0.129664 0.336863 -0.124794 -105.143989 210.939098 -0.000000 0.457726 0.312212 -0.367705
0.150000 -37.740894 -84.412896 -0.000000 0.129650 0.336886 -0.124794 -105.112646 211.128269 -0.000000 0.457743 0.312180 -0.367725
0.155000 -37.820647 -84.399870 -0.000000 0.129640 0.336919 -0.124817 -105.099216 211.324989 -0.000000 0.457738 0.312149 -0.367725
0.160000 -37.909471 -84.388100 -0.000000 0.129623 0.336949 -0.124808 -105.114884 211.515748 -0.000000 0.457742 0.312115 -0.367736
0.165000 -37.989065 -84.379473 -0.000000 0.129621 0.336950 -0.124823 -105.181998 211.677329 -0.000000 0.457745 0.312103 -0.367724
0.170000 -38.072368 -84.361097 -0.000000 0.129609 0.336983 -0.124827 -105.226206 211.827181 -0.000000 0.457763 0.312088 -0.367746
0.175000 -38.140361 -84.338729 -0.000000 0.129611 0.336988 -0.124827 -105.248411 211.942723 -0.000000 0.457754 0.312061 -0.367721
0.180000 -38.184133 -84.321065 -0.000000 0.129607 0.337002 -0.124829 -105.246563 212.012310 -0.000000 0.457704 0.312064 -0.367520
0.185000 -38.207565 -84.314570 -0.000000 0.129609 0.337007 -0.124826 -105.214126 212.039709 -0.000000 0.457709 0.312050 -0.367512
0.190000 -38.204665 -84.323933 -0.000000 0.129631 0.337002 -0.124812 -105.175512 212.015806 -0.000000 0.457704 0.312048 -0.367521
0.195000 -38.187241 -84.336251 -0.000000 0.129631 0.337013 -0.124811 -105.097371 211.951132 -0.000000 0.457698 0.312045 -0.367523
0.200000 -38.148242 -84.344535 -0.000000 0.129632 0.336997 -0.124807 -104.979588 211.830597 -0.000000 0.457696 0.312044 -0.367520
0.205000 -38.103180 -84.335987 -0.000000 0.129653 0.337001 -0.124815 -104.777297 211.671023 -0.000000 0.457684 0.312051 -0.367510
0.210000 -38.055462 -84.310505 -0.000000 0.129642 0.337000 -0.124808 -104.523537 211.485389 -0.000000 0.457682 0.312039 -0.367519
0.215000 -38.004286 -84.277062 -0.000000 0.129669 0.336997 -0.124809 -104.301933 211.295380 -0.000000 0.457675 0.312035 -0.367507
0.220000 -37.953925 -84.243953 -0.000000 0.129673 0.337004 -0.124810 -104.176591 211.137875 -0.000000 0.457654 0.312046 -0.367520
0.225000 -37.909114 -84.213748 -0.000000 0.129665 0.337005 -0.124825 -104.175268 211.043687 -0.000000 0.457654 0.312043 -0.367524
0.230000 -37.879231 -84.182361 -0.000000 0.129678 0.337013 -0.124815 -104.281746 211.026156 -0.000000 0.457660 0.312018 -0.367512
0.235000 -37.852757 -84.155757 -0.000000 0.129688 0.337011 -0.124828 -104.506033 211.049638 -0.000000 0.457656 0.312013 -0.367526
0.240000 -37.847425 -84.126613 -0.000000 0.129676 0.337037 -0.124835 -104.759766 211.106078 -0.000000 0.457653 0.312006 -0.367522
0.245000 -37.848417 -84.101512 -0.000000 0.129684 0.337028 -0.124825 -105.022400 211.151570 -0.000000 0.457657 0.312001 -0.367526
0.250000 -37.898351 -84.066183 -0.000000 0.129678 0.337111 -0.124815 -105.140130 211.226075 -0.000000 0.457663 0.311968 -0.367507
0.255000 -37.946522 -84.052464 -0.000000 0.129675 0.337135 -0.124811 -105.218857 211.270277 -0.000000 0.457665 0.311951 -0.367503
0.260000 -38.006406 -84.056504 -0.000000 0.129671 0.337164 -0.124811 -105.216752 211.322609 -0.000000 0.457651 0.311941 -0.367516
0.265000 -38.070586 -84.073003 -0.000000 0.129669 0.337177 -0.124826 -105.143904 211.400796 -0.000000 0.457651 0.311909 -0.367520
0.270000 -38.134624 -84.092171 -0.000000 0.129661 0.337212 -0.124811 -105.011113 211.511203 -0.000000 0.457648 0.311887 -0.367509
0.275000 -38.189772 -84.110422 -0.000000 0.129649 0.337235 -0.124827 -104.858195 211.632820 -0.000000 0.457645 0.311873 -0.367517
0.280000 -38.235202 -84.125066 -0.000000 0.129649 0.337240 -0.124835 -104.709933 211.746405 -0.000000 0.457640 0.311858 -0.367519
0.285000 -38.277152 -84.132399 -0.000000 0.129644 0.337269 -0.124831 -104.562608 211.848604 -0.000000 0.457622 0.311834 -0.367515
0.290000 -38.294012 -84.143575 -0.000000 0.129632 0.337288 -0.124831 -104.480712 211.911533 -0.000000 0.457619 0.311823 -0.367504
0.295000 -38.292423 -84.159205 -0.000000 0.129631 0.337315 -0.124845 -104.477100 211.947787 -0.000000 0.457602 0.311820 -0.367512
0.300000 -38.279087 -84.180255 -0.000000 0.129632 0.337310 -0.124849 -104.584286 211.968610 -0.000000 0.457582 0.311797 -0.367528
0.305000 -38.278798 -84.199246 -0.000000 0.129632 0.337336 -0.124833 -104.778268 212.001323 -0.000000 0.457563 0.311775 -0.367516
